inDegrees=no
num_controls=7
num_derivatives=13
num_iterations=198
num_multipliers=7
num_parameters=0
num_slacks=7
num_states=26
objective=5.460477
objective_accelerations=0.372321
objective_balance=0.045873
objective_effort=0.364905
objective_height=4.557484
objective_ligament=0.119895
solver_duration=2032.743388
status=Solve_Succeeded
success=true
DataType=double
version=3
OpenSimVersion=4.4-2022-07-23-0e9fedc
endheader
time	/jointset/ground_pelvis/pelvis_tilt/value	/jointset/ground_pelvis/pelvis_tx/value	/jointset/ground_pelvis/pelvis_ty/value	/jointset/hip_l/hip_flexion_l/value	/jointset/hip_l/hip_adduction_l/value	/jointset/hip_l/hip_rotation_l/value	/jointset/back/lumbar_extension/value	/jointset/patellofemoral_l/patellar_flexion_l/value	/jointset/knee_l/knee_flexion_l/value	/jointset/knee_l/knee_adduction_l/value	/jointset/knee_l/knee_rotation_l/value	/jointset/ankle_l/ankle_angle_l/value	/jointset/subtalar_l/subtalar_angle_l/value	/jointset/ground_pelvis/pelvis_tilt/speed	/jointset/ground_pelvis/pelvis_tx/speed	/jointset/ground_pelvis/pelvis_ty/speed	/jointset/hip_l/hip_flexion_l/speed	/jointset/hip_l/hip_adduction_l/speed	/jointset/hip_l/hip_rotation_l/speed	/jointset/back/lumbar_extension/speed	/jointset/patellofemoral_l/patellar_flexion_l/speed	/jointset/knee_l/knee_flexion_l/speed	/jointset/knee_l/knee_adduction_l/speed	/jointset/knee_l/knee_rotation_l/speed	/jointset/ankle_l/ankle_angle_l/speed	/jointset/subtalar_l/subtalar_angle_l/speed	/forceset/tau_hip_flexion_l	/forceset/tau_hip_adduction_l	/forceset/tau_hip_rotation_l	/forceset/tau_knee_flexion_l	/forceset/tau_ankle_angle_l	/forceset/tau_subtalar_angle_l	/forceset/tau_lumbar_extension	lambda_cid13_p0	lambda_cid13_p1	lambda_cid13_p2	lambda_cid13_p3	lambda_cid13_p4	lambda_cid13_p5	lambda_cid14_p0	/jointset/ground_pelvis/pelvis_tilt/accel	/jointset/ground_pelvis/pelvis_tx/accel	/jointset/ground_pelvis/pelvis_ty/accel	/jointset/hip_l/hip_flexion_l/accel	/jointset/hip_l/hip_adduction_l/accel	/jointset/hip_l/hip_rotation_l/accel	/jointset/back/lumbar_extension/accel	/jointset/patellofemoral_l/patellar_flexion_l/accel	/jointset/knee_l/knee_flexion_l/accel	/jointset/knee_l/knee_adduction_l/accel	/jointset/knee_l/knee_rotation_l/accel	/jointset/ankle_l/ankle_angle_l/accel	/jointset/subtalar_l/subtalar_angle_l/accel	gamma_cid13_p0	gamma_cid13_p1	gamma_cid13_p2	gamma_cid13_p3	gamma_cid13_p4	gamma_cid13_p5	gamma_cid14_p0
0	-0.03682271995243708	0.05667758468912219	0.9203415898587672	0.3085811930696054	-0.2956404751017078	-0.3016072359988446	-0.3879500408040475	0.2499276582271004	0.249927658227084	-0.1745329251994329	-0.1745329251994329	-0.0008036543073733089	0.0004376043129605543	0	0	0	0	0	0	0	0	0	0	0	0	0	0.06007131479875183	-0.0636353245930029	-0.02285427803517418	-0.2689036695593902	0.2529989332959013	-0.007836720388473106	0.02490255054905369	37.60476350713826	-5.193591578624922	2.672746461005579	-21.36004793626838	-641.8969078968103	-84.13583307433977	-23.1970376542726	0.3381337428398417	-1.004032597934257	-0.5841100272904965	5.679100929799437	-0.6335765772835807	2.780724053043617	-6.309134295923646	8.064965281241914	8.064965281241918	1.29233004609965	-0.05815875665151395	2.596703133496281	0.207253003023821	-4.590353984961184e-09	1.209735032193755e-07	3.874208360687104e-08	4.977397343654553e-09	4.88787867072896e-08	-6.007221923577519e-09	6.88337151055632e-09
0.01	-0.03680356564784212	0.05662818722667696	0.9203131098065263	0.3088568774974174	-0.2956722259181366	-0.3014673626135715	-0.3882637176705553	0.2503228612315487	0.2503228612316163	-0.1744713768235724	-0.1745326241927472	-0.0006763276059325882	0.00044701414770051	0.003843668674009616	-0.009811383558328978	-0.005671949189125475	0.05482451464196157	-0.006323494526114289	0.02783980265598375	-0.06232919020090703	0.07868454709476483	0.07868454709474866	0.01224069735802149	5.59270104898251e-05	0.02538240719605214	0.001882306153148533	0.05449465059567438	-0.07000277232452809	-0.02193467229511874	-0.2628790053077392	0.2425695368567572	0.002516437973195002	0.02977359199217389	34.53862332360141	-9.130984068104423	3.275201859992245	-20.37432912488403	-644.0612384803632	-91.96351521458276	-23.20153404332001	0.4093998501466761	-0.9594738997884669	-0.5551184001095215	5.33726707403017	-0.6277623549716628	2.765377901533643	-6.133883916647466	7.716789978482524	7.716789978480447	1.179396417631892	0.03661524478036713	2.496572001017886	0.1787466816293592	-2.423093126610578e-08	1.137205677856487e-07	9.763458495170887e-08	2.292834192047154e-08	-2.670029940902044e-08	-5.286025824203455e-08	6.864273885615398e-10
0.02	-0.03674559137241237	0.05648271939564786	0.9202286340553152	0.3096714351400648	-0.2957664169727495	-0.3010531372957574	-0.3891885009459869	0.2514942278178856	0.2514942278178994	-0.1742895227019305	-0.1745319274129607	-0.0002976643348586004	0.0004752524960057451	0.007763994166756048	-0.01921407371677336	-0.01119913979400666	0.1077746429894275	-0.01248804764001541	0.05487038649826084	-0.1222212817807382	0.1552327163850658	0.1552327163850336	0.02405966819514787	7.772661622133944e-05	0.05026731392642704	0.00376570271304633	0.04891798639150149	-0.07637022005624851	-0.02101506655505053	-0.2568543410568248	0.2321401404173027	0.01286959633455525	0.03464463343474108	31.53471218370342	-13.07898776940823	3.879024442002704	-19.55432463701635	-645.3447930713783	-99.71036729479709	-23.21478140482652	0.3534651065872633	-0.9222939179573701	-0.5551583104416441	5.304223670900286	-0.6017882948410216	2.618880290301822	-5.821714571708429	7.637689720349227	7.637689720349268	1.20798474192056	-0.06498423760368671	2.497203040360791	0.2074710843735935	-4.387150854725038e-08	1.06467632351922e-07	1.565270862965467e-07	4.087928649728852e-08	-1.022793855253305e-07	-9.971329456049158e-08	-5.51051673343324e-09
0.03	-0.0366482849020268	0.05624519245427929	0.9200894481397915	0.311006618186432	-0.2959213342763581	-0.3003731170673969	-0.3907000074516901	0.2534205200978357	0.2534205200978631	-0.1739914745239778	-0.1745315646677119	0.0003272347773646006	0.0005224162703613961	0.01169772425960871	-0.02823065206499885	-0.01662739892433524	0.1589776633034803	-0.01845964440281464	0.08100556258775701	-0.1796870789302204	0.2296663144518407	0.2296663144518391	0.03547577294402903	4.914957045115047e-06	0.07461381716876848	0.005670810821386146	0.0431574710967989	-0.06938575377169467	-0.02018984170158279	-0.2509499148847218	0.225670409042012	0.010484683731388	0.03959239505642857	29.29551784290118	-11.745792441944	3.774576817814597	-18.42509589858389	-646.7776550684181	-96.21921332890435	-23.23628743006915	0.4133869586271755	-0.8822321711328042	-0.5350838176167005	4.985689528927884	-0.5895210250536542	2.591603567206914	-5.65007122206535	7.292282203322609	7.292282203327197	1.097329966569282	0.02310725723178686	2.388570938321318	0.1825597297772699	-6.003657228465461e-08	8.3771099457607e-08	2.085062542565028e-07	5.331692733031725e-08	-1.651347391572443e-07	-1.446329900605194e-07	-1.26234264566268e-08
0.04	-0.03651162913112516	0.05591932125385284	0.9198962948123064	0.3128453010994143	-0.2961349026792059	-0.2994355916183634	-0.3927743837159852	0.2560803658292	0.256080365829201	-0.173581483973493	-0.174531622661489	0.001192638316441159	0.0005887369369429333	0.0156338542721838	-0.03688292552834978	-0.02199262218630375	0.2084746163083252	-0.02421826748779404	0.1063714306345948	-0.234795233499587	0.3019434066578551	0.3019434066578852	0.04644814270080996	-6.421209882953585e-06	0.09836819929713025	0.007597081158250813	0.03739695580233476	-0.06240128748711186	-0.01936461684848368	-0.2450454887124306	0.2192006776667762	0.008099771128274463	0.04454015667825467	27.11469592327073	-10.42007329414303	3.66818679043124	-17.45578183189746	-647.3910295083803	-92.6482337581559	-23.26539510814699	0.3539450905318122	-0.8494329409824797	-0.5425511367696304	4.963010209058667	-0.5591935592770825	2.465018681770054	-5.350186055685255	7.206388548197154	7.206388548197435	1.119237743500483	-0.05268913915416044	2.378778817564835	0.2117035300785327	-7.612997594899205e-08	6.075614187338295e-08	2.603428792600697e-07	6.564089179749468e-08	-2.277277477894799e-07	-1.895128228632601e-07	-1.975522206850487e-08
0.05	-0.03633579446046949	0.05550882679088619	0.9196496792712662	0.3151706993256074	-0.296404974785929	-0.2982486300661087	-0.3953881145594443	0.2594524606175546	0.2594524606174737	-0.1730640103543511	-0.1745318816362064	0.002292765521789772	0.0006744935747461778	0.01952975038322443	-0.04514710991689899	-0.02732875518755461	0.2563197087633517	-0.02975692639593833	0.1308923498855676	-0.287581530494983	0.3721190721171627	0.3721190721171944	0.05696462490622015	-3.144314029690649e-05	0.1215671166036078	0.009564259052787114	0.0321659076068693	-0.06069442138308788	-0.01860604319924781	-0.2407045739864217	0.2129034852677304	0.01015793115055049	0.04917396684050077	25.14135761961601	-11.00425381980386	3.802257579811307	-16.79926041771354	-648.2650710067894	-93.2088225762017	-23.30127930206273	0.4069099708554929	-0.8045693878473509	-0.528930808025682	4.652453048475408	-0.5453666282696069	2.426312686151758	-5.18744081679652	6.869687720484521	6.869687720484568	1.005598996016857	0.02472338615662446	2.276928127721372	0.1906875134799179	-8.809239372418693e-08	2.134293648657854e-08	2.980937985577381e-07	7.297280738934055e-08	-2.768969034341074e-07	-2.266709064637877e-07	-2.720732817938539e-08
